<mxfile host="app.diagrams.net" modified="2023-08-14T13:36:59.553Z" agent="Mozilla/5.0 (X11; Linux x86_64; rv:108.0) Gecko/20100101 Firefox/108.0" etag="3F2GAPkgWc6_oz6AHA8q" version="21.6.8" type="device">
  <diagram name="Page-1" id="aDgRZFvFXDjg_jGfRXhe">
    <mxGraphModel dx="2382" dy="728" grid="1" gridSize="10" guides="1" tooltips="1" connect="1" arrows="1" fold="1" page="1" pageScale="1" pageWidth="827" pageHeight="1169" math="0" shadow="0">
      <root>
        <mxCell id="0" />
        <mxCell id="1" parent="0" />
        <mxCell id="en180CTn0l9zymGrBvhz-39" value="LOOP" style="shape=umlFrame;whiteSpace=wrap;html=1;pointerEvents=0;fillColor=#F5F5F5;strokeColor=#666666;fontColor=#333333;swimlaneFillColor=#E6E6E6;" parent="1" vertex="1">
          <mxGeometry x="-340" y="260" width="1220" height="1460" as="geometry" />
        </mxCell>
        <mxCell id="en180CTn0l9zymGrBvhz-40" value="" style="group" parent="1" vertex="1" connectable="0">
          <mxGeometry x="-290" y="280" width="2815" height="1308.08" as="geometry" />
        </mxCell>
        <mxCell id="en180CTn0l9zymGrBvhz-18" value="" style="group" parent="en180CTn0l9zymGrBvhz-40" vertex="1" connectable="0">
          <mxGeometry x="30" width="1060" height="88.08080808080808" as="geometry" />
        </mxCell>
        <mxCell id="ziAq5ncUOEXPv-bApJY8-3" value="creazioneEvento(cliente, dataInizio, descrizione)" style="html=1;verticalAlign=bottom;endArrow=block;edgeStyle=elbowEdgeStyle;elbow=vertical;curved=0;rounded=0;strokeColor=#666666;labelBackgroundColor=none;" parent="en180CTn0l9zymGrBvhz-18" source="ziAq5ncUOEXPv-bApJY8-1" target="ziAq5ncUOEXPv-bApJY8-2" edge="1">
          <mxGeometry width="80" relative="1" as="geometry">
            <mxPoint x="80" as="sourcePoint" />
            <mxPoint x="500" y="11.01010101010101" as="targetPoint" />
            <Array as="points">
              <mxPoint x="760" y="33.03030303030303" />
              <mxPoint x="50" />
            </Array>
          </mxGeometry>
        </mxCell>
        <mxCell id="ziAq5ncUOEXPv-bApJY8-4" value="nuovo evento" style="html=1;verticalAlign=bottom;endArrow=none;edgeStyle=elbowEdgeStyle;elbow=vertical;curved=0;rounded=0;startArrow=open;startFill=0;endFill=0;dashed=1;strokeColor=#666666;labelBackgroundColor=none;" parent="en180CTn0l9zymGrBvhz-18" source="ziAq5ncUOEXPv-bApJY8-1" target="ziAq5ncUOEXPv-bApJY8-2" edge="1">
          <mxGeometry width="80" relative="1" as="geometry">
            <mxPoint x="630" y="187.17171717171718" as="sourcePoint" />
            <mxPoint x="710" y="187.17171717171718" as="targetPoint" />
            <Array as="points">
              <mxPoint x="760" y="66.06060606060606" />
              <mxPoint x="550" y="44.04040404040404" />
            </Array>
          </mxGeometry>
        </mxCell>
        <mxCell id="en180CTn0l9zymGrBvhz-37" value="LOOP" style="shape=umlFrame;whiteSpace=wrap;html=1;pointerEvents=0;fillColor=#F5F5F5;strokeColor=#666666;swimlaneFillColor=#E6E6E6;" parent="en180CTn0l9zymGrBvhz-40" vertex="1">
          <mxGeometry x="-3" y="320" width="1120" height="970" as="geometry" />
        </mxCell>
        <mxCell id="DYl_nhM4-Qo1yMT7ztg8-1" value="" style="group" parent="en180CTn0l9zymGrBvhz-40" vertex="1" connectable="0">
          <mxGeometry x="10" y="88.08" width="1110" height="110" as="geometry" />
        </mxCell>
        <mxCell id="DYl_nhM4-Qo1yMT7ztg8-4" value="LOOP" style="shape=umlFrame;whiteSpace=wrap;html=1;pointerEvents=0;fillColor=#F5F5F5;strokeColor=#666666;swimlaneFillColor=#E6E6E6;gradientColor=none;shadow=0;" parent="DYl_nhM4-Qo1yMT7ztg8-1" vertex="1">
          <mxGeometry width="1110" height="110" as="geometry" />
        </mxCell>
        <mxCell id="en180CTn0l9zymGrBvhz-36" value="" style="group" parent="en180CTn0l9zymGrBvhz-40" vertex="1" connectable="0">
          <mxGeometry x="10" y="910" width="1107" height="398.08" as="geometry" />
        </mxCell>
        <mxCell id="en180CTn0l9zymGrBvhz-26" value="" style="group" parent="en180CTn0l9zymGrBvhz-36" vertex="1" connectable="0">
          <mxGeometry y="120.00000000000003" width="1090" height="115.10000000000002" as="geometry" />
        </mxCell>
        <mxCell id="en180CTn0l9zymGrBvhz-12" value="approvazioneMenu(servizio)" style="html=1;verticalAlign=bottom;endArrow=block;edgeStyle=elbowEdgeStyle;elbow=vertical;curved=0;rounded=0;movable=1;resizable=1;rotatable=1;deletable=1;editable=1;locked=0;connectable=1;strokeColor=#666666;labelBackgroundColor=none;" parent="en180CTn0l9zymGrBvhz-26" source="ziAq5ncUOEXPv-bApJY8-1" edge="1">
          <mxGeometry width="80" relative="1" as="geometry">
            <mxPoint x="41.132075471698116" y="56.88000000000001" as="sourcePoint" />
            <mxPoint x="1038.5849056603774" y="56.88000000000001" as="targetPoint" />
            <Array as="points">
              <mxPoint x="647.8301886792453" y="56.88000000000001" />
              <mxPoint x="577.0213207547171" y="102.92000000000003" />
            </Array>
          </mxGeometry>
        </mxCell>
        <mxCell id="en180CTn0l9zymGrBvhz-13" value="servizio modificato" style="html=1;verticalAlign=bottom;endArrow=none;edgeStyle=elbowEdgeStyle;elbow=vertical;curved=0;rounded=0;startArrow=open;startFill=0;endFill=0;movable=1;resizable=1;rotatable=1;deletable=1;editable=1;locked=0;connectable=1;dashed=1;labelBackgroundColor=none;strokeColor=#666666;" parent="en180CTn0l9zymGrBvhz-26" source="ziAq5ncUOEXPv-bApJY8-1" edge="1">
          <mxGeometry width="80" relative="1" as="geometry">
            <mxPoint x="41.132075471698116" y="85.174" as="sourcePoint" />
            <mxPoint x="1038.5849056603774" y="85.174" as="targetPoint" />
            <Array as="points">
              <mxPoint x="555.2830188679246" y="85.174" />
            </Array>
          </mxGeometry>
        </mxCell>
        <mxCell id="en180CTn0l9zymGrBvhz-23" value="LOOP" style="shape=umlFrame;whiteSpace=wrap;html=1;pointerEvents=0;fillColor=#F5F5F5;strokeColor=#666666;" parent="en180CTn0l9zymGrBvhz-26" vertex="1">
          <mxGeometry width="1090" height="115.10000000000002" as="geometry" />
        </mxCell>
        <mxCell id="en180CTn0l9zymGrBvhz-25" value="" style="group" parent="en180CTn0l9zymGrBvhz-36" vertex="1" connectable="0">
          <mxGeometry y="260.00000000000006" width="1090" height="103.59000000000003" as="geometry" />
        </mxCell>
        <mxCell id="en180CTn0l9zymGrBvhz-14" value="assegnazioneRuolo(disponibilità, ruolo)" style="html=1;verticalAlign=bottom;endArrow=block;edgeStyle=elbowEdgeStyle;elbow=vertical;curved=0;rounded=0;movable=1;resizable=1;rotatable=1;deletable=1;editable=1;locked=0;connectable=1;strokeColor=#666666;labelBackgroundColor=none;" parent="en180CTn0l9zymGrBvhz-25" source="ziAq5ncUOEXPv-bApJY8-1" edge="1">
          <mxGeometry width="80" relative="1" as="geometry">
            <mxPoint x="41.132075471698116" y="46.040000000000006" as="sourcePoint" />
            <mxPoint x="1038.5849056603774" y="46.040000000000006" as="targetPoint" />
            <Array as="points">
              <mxPoint x="647.8301886792453" y="46.040000000000006" />
              <mxPoint x="577.0213207547171" y="92.08000000000001" />
            </Array>
          </mxGeometry>
        </mxCell>
        <mxCell id="en180CTn0l9zymGrBvhz-15" value="disponibilità modificata" style="html=1;verticalAlign=bottom;endArrow=none;edgeStyle=elbowEdgeStyle;elbow=vertical;curved=0;rounded=0;startArrow=open;startFill=0;endFill=0;movable=1;resizable=1;rotatable=1;deletable=1;editable=1;locked=0;connectable=1;dashed=1;labelBackgroundColor=none;strokeColor=#666666;" parent="en180CTn0l9zymGrBvhz-25" source="ziAq5ncUOEXPv-bApJY8-1" edge="1">
          <mxGeometry width="80" relative="1" as="geometry">
            <mxPoint x="41.132075471698116" y="73.66400000000002" as="sourcePoint" />
            <mxPoint x="1038.5849056603774" y="73.66400000000002" as="targetPoint" />
            <Array as="points">
              <mxPoint x="555.2830188679246" y="73.66400000000002" />
            </Array>
          </mxGeometry>
        </mxCell>
        <mxCell id="en180CTn0l9zymGrBvhz-24" value="LOOP" style="shape=umlFrame;whiteSpace=wrap;html=1;pointerEvents=0;fillColor=#F5F5F5;strokeColor=#666666;" parent="en180CTn0l9zymGrBvhz-25" vertex="1">
          <mxGeometry width="1090" height="103.59000000000003" as="geometry" />
        </mxCell>
        <mxCell id="LqKblC7Wvc4Bk4WyccNA-126" value="ALT" style="shape=umlFrame;whiteSpace=wrap;html=1;fontColor=#FFA89E;swimlaneFillColor=#FFE6CC;fillColor=#ffe6cc;strokeColor=#d79b00;fillOpacity=60;" parent="en180CTn0l9zymGrBvhz-40" vertex="1">
          <mxGeometry x="60" y="499" width="1020" height="230" as="geometry" />
        </mxCell>
        <mxCell id="LqKblC7Wvc4Bk4WyccNA-127" value="" style="shape=umlFrame;whiteSpace=wrap;html=1;fontColor=#FFA89E;swimlaneFillColor=#FFE6CC;fillColor=#ffe6cc;strokeColor=#d79b00;fillOpacity=60;width=10;height=15;" parent="en180CTn0l9zymGrBvhz-40" vertex="1">
          <mxGeometry x="60" y="729" width="1020" height="251" as="geometry" />
        </mxCell>
        <mxCell id="LqKblC7Wvc4Bk4WyccNA-130" value="" style="group" parent="en180CTn0l9zymGrBvhz-40" vertex="1" connectable="0">
          <mxGeometry x="70" y="559" width="1000" height="111" as="geometry" />
        </mxCell>
        <mxCell id="LqKblC7Wvc4Bk4WyccNA-131" value="ALT" style="shape=umlFrame;whiteSpace=wrap;html=1;swimlaneFillColor=#FF9999;fillColor=#f8cecc;strokeColor=#FF3333;fillOpacity=60;fontColor=#FF0000;" parent="LqKblC7Wvc4Bk4WyccNA-130" vertex="1">
          <mxGeometry width="1000.0000000000001" height="60.54545454545454" as="geometry" />
        </mxCell>
        <mxCell id="LqKblC7Wvc4Bk4WyccNA-133" value="" style="shape=umlFrame;whiteSpace=wrap;html=1;swimlaneFillColor=#FF9999;fillColor=#f8cecc;strokeColor=#FF3333;fillOpacity=60;fontColor=#FF0000;width=10;height=15;" parent="LqKblC7Wvc4Bk4WyccNA-130" vertex="1">
          <mxGeometry y="60.54545454545454" width="1000.0000000000001" height="50.45454545454545" as="geometry" />
        </mxCell>
        <mxCell id="LqKblC7Wvc4Bk4WyccNA-142" value="" style="shape=umlFrame;whiteSpace=wrap;html=1;swimlaneFillColor=#FF9999;fillColor=#f8cecc;strokeColor=#FF3333;fillOpacity=60;fontColor=#FF0000;width=10;height=15;" parent="en180CTn0l9zymGrBvhz-40" vertex="1">
          <mxGeometry x="70" y="669" width="1000" height="50" as="geometry" />
        </mxCell>
        <mxCell id="LqKblC7Wvc4Bk4WyccNA-143" value="4.1a.1&amp;nbsp; evento terminato oppure annullato" style="html=1;verticalAlign=bottom;endArrow=open;edgeStyle=elbowEdgeStyle;elbow=vertical;curved=0;rounded=0;labelBackgroundColor=none;dashed=1;strokeColor=#FF0000;fontColor=#FF0000;endFill=0;" parent="en180CTn0l9zymGrBvhz-40" source="LqKblC7Wvc4Bk4WyccNA-144" edge="1">
          <mxGeometry relative="1" as="geometry">
            <mxPoint x="370" y="693.5" as="sourcePoint" />
            <mxPoint x="80" y="693.6400000000003" as="targetPoint" />
          </mxGeometry>
        </mxCell>
        <mxCell id="LqKblC7Wvc4Bk4WyccNA-137" value="ALT" style="shape=umlFrame;whiteSpace=wrap;html=1;swimlaneFillColor=#FF9999;fillColor=#f8cecc;strokeColor=#FF3333;fillOpacity=60;fontColor=#FF0000;" parent="en180CTn0l9zymGrBvhz-40" vertex="1">
          <mxGeometry x="70" y="790" width="1000.0000000000001" height="60" as="geometry" />
        </mxCell>
        <mxCell id="LqKblC7Wvc4Bk4WyccNA-138" value="disponibilità modificata" style="html=1;verticalAlign=bottom;endArrow=block;edgeStyle=elbowEdgeStyle;elbow=vertical;curved=0;rounded=0;labelBackgroundColor=none;dashed=1;" parent="en180CTn0l9zymGrBvhz-40" edge="1">
          <mxGeometry relative="1" as="geometry">
            <mxPoint x="1049.5" y="830.3333333333333" as="sourcePoint" />
            <mxPoint x="80.09848484848484" y="830.1400000000003" as="targetPoint" />
          </mxGeometry>
        </mxCell>
        <mxCell id="LqKblC7Wvc4Bk4WyccNA-139" value="" style="shape=umlFrame;whiteSpace=wrap;html=1;swimlaneFillColor=#FF9999;fillColor=#f8cecc;strokeColor=#FF3333;fillOpacity=60;fontColor=#FF0000;width=10;height=15;" parent="en180CTn0l9zymGrBvhz-40" vertex="1">
          <mxGeometry x="70" y="850" width="1000.0000000000001" height="50" as="geometry" />
        </mxCell>
        <mxCell id="pRp4SMVmh0uea0Mb9OJ8-1" value="" style="shape=umlFrame;whiteSpace=wrap;html=1;swimlaneFillColor=#FF9999;fillColor=#f8cecc;strokeColor=#FF3333;fillOpacity=60;fontColor=#FF0000;width=10;height=15;" vertex="1" parent="en180CTn0l9zymGrBvhz-40">
          <mxGeometry x="70" y="901" width="1000.0000000000001" height="50" as="geometry" />
        </mxCell>
        <mxCell id="DYl_nhM4-Qo1yMT7ztg8-2" value="aggiuntaServizio(tipo, data, luogo, fasciaOraria, numeroPartecipanti, propaga)" style="html=1;verticalAlign=bottom;endArrow=block;edgeStyle=elbowEdgeStyle;elbow=vertical;curved=0;rounded=0;strokeColor=#666666;labelBackgroundColor=none;" parent="1" source="ziAq5ncUOEXPv-bApJY8-1" target="ziAq5ncUOEXPv-bApJY8-2" edge="1">
          <mxGeometry width="80" relative="1" as="geometry">
            <mxPoint x="140.64" y="424.14060606060605" as="sourcePoint" />
            <mxPoint x="460.64" y="424.14060606060605" as="targetPoint" />
            <Array as="points">
              <mxPoint x="200" y="402.120404040404" />
              <mxPoint x="360" y="380.100202020202" />
              <mxPoint x="291.14" y="424.14060606060605" />
            </Array>
          </mxGeometry>
        </mxCell>
        <mxCell id="DYl_nhM4-Qo1yMT7ztg8-3" value="nuovo servizio" style="html=1;verticalAlign=bottom;endArrow=none;edgeStyle=elbowEdgeStyle;elbow=vertical;curved=0;rounded=0;startArrow=open;startFill=0;endFill=0;dashed=1;labelBackgroundColor=none;strokeColor=#666666;" parent="1" source="ziAq5ncUOEXPv-bApJY8-1" target="ziAq5ncUOEXPv-bApJY8-2" edge="1">
          <mxGeometry width="80" relative="1" as="geometry">
            <mxPoint x="140.64" y="457.17090909090905" as="sourcePoint" />
            <mxPoint x="460.64" y="457.17090909090905" as="targetPoint" />
            <Array as="points">
              <mxPoint x="190" y="435.1507070707071" />
              <mxPoint x="260" y="413.130505050505" />
            </Array>
          </mxGeometry>
        </mxCell>
        <mxCell id="LqKblC7Wvc4Bk4WyccNA-119" value="OPT" style="shape=umlFrame;whiteSpace=wrap;html=1;pointerEvents=0;fillColor=#F5F5F5;strokeColor=#666666;swimlaneFillColor=#E6E6E6;" parent="1" vertex="1">
          <mxGeometry x="-285" y="496" width="1110" height="84" as="geometry" />
        </mxCell>
        <mxCell id="LqKblC7Wvc4Bk4WyccNA-118" value="evento modificato" style="html=1;verticalAlign=bottom;endArrow=none;edgeStyle=elbowEdgeStyle;elbow=vertical;curved=0;rounded=0;startArrow=open;startFill=0;endFill=0;dashed=1;labelBackgroundColor=none;" parent="1" edge="1">
          <mxGeometry width="80" relative="1" as="geometry">
            <mxPoint x="-210" y="562" as="sourcePoint" />
            <mxPoint x="760" y="562.0048484848485" as="targetPoint" />
            <Array as="points">
              <mxPoint x="270" y="562.0654545454545" />
            </Array>
          </mxGeometry>
        </mxCell>
        <mxCell id="LqKblC7Wvc4Bk4WyccNA-120" value="assegnazioneChef(chef)" style="html=1;verticalAlign=bottom;endArrow=block;edgeStyle=elbowEdgeStyle;elbow=vertical;curved=0;rounded=0;labelBackgroundColor=none;" parent="1" edge="1">
          <mxGeometry x="-0.0004" width="80" relative="1" as="geometry">
            <mxPoint x="-211" y="529" as="sourcePoint" />
            <mxPoint x="760" y="529" as="targetPoint" />
            <Array as="points">
              <mxPoint x="360" y="529.0351515151515" />
              <mxPoint x="291.14" y="573.0755555555555" />
            </Array>
            <mxPoint as="offset" />
          </mxGeometry>
        </mxCell>
        <mxCell id="ziAq5ncUOEXPv-bApJY8-1" value="" style="shape=umlLifeline;perimeter=lifelinePerimeter;whiteSpace=wrap;html=1;container=1;dropTarget=0;collapsible=0;recursiveResize=0;outlineConnect=0;portConstraint=eastwest;newEdgeStyle={&quot;edgeStyle&quot;:&quot;elbowEdgeStyle&quot;,&quot;elbow&quot;:&quot;vertical&quot;,&quot;curved&quot;:0,&quot;rounded&quot;:0};participant=umlActor;" parent="1" vertex="1">
          <mxGeometry x="-220" y="170" width="20" height="1520" as="geometry" />
        </mxCell>
        <mxCell id="ziAq5ncUOEXPv-bApJY8-2" value="Sistema" style="shape=umlLifeline;perimeter=lifelinePerimeter;whiteSpace=wrap;html=1;container=1;dropTarget=0;collapsible=0;recursiveResize=0;outlineConnect=0;portConstraint=eastwest;newEdgeStyle={&quot;edgeStyle&quot;:&quot;elbowEdgeStyle&quot;,&quot;elbow&quot;:&quot;vertical&quot;,&quot;curved&quot;:0,&quot;rounded&quot;:0};" parent="1" vertex="1">
          <mxGeometry x="710" y="190" width="100" height="1510" as="geometry" />
        </mxCell>
        <mxCell id="LqKblC7Wvc4Bk4WyccNA-122" value="prenotazionePersonale(disponibilità, servizio)" style="html=1;verticalAlign=bottom;endArrow=block;edgeStyle=elbowEdgeStyle;elbow=vertical;curved=0;rounded=0;movable=1;resizable=1;rotatable=1;deletable=1;editable=1;locked=0;connectable=1;labelBackgroundColor=none;" parent="1" source="ziAq5ncUOEXPv-bApJY8-1" edge="1">
          <mxGeometry width="80" relative="1" as="geometry">
            <mxPoint x="-190" y="695.4878048780488" as="sourcePoint" />
            <mxPoint x="760" y="695.4878048780488" as="targetPoint" />
            <Array as="points">
              <mxPoint x="385" y="694.7426829268293" />
              <mxPoint x="316.14" y="767.7329268292683" />
            </Array>
          </mxGeometry>
        </mxCell>
        <mxCell id="LqKblC7Wvc4Bk4WyccNA-123" value="disponibilità modificata" style="html=1;verticalAlign=bottom;endArrow=none;edgeStyle=elbowEdgeStyle;elbow=vertical;curved=0;rounded=0;startArrow=open;startFill=0;endFill=0;movable=1;resizable=1;rotatable=1;deletable=1;editable=1;locked=0;connectable=1;dashed=1;labelBackgroundColor=none;" parent="1" edge="1">
          <mxGeometry width="80" relative="1" as="geometry">
            <mxPoint x="-210" y="749.4853658536585" as="sourcePoint" />
            <mxPoint x="760" y="749.4853658536585" as="targetPoint" />
            <Array as="points">
              <mxPoint x="290" y="749.4853658536585" />
            </Array>
          </mxGeometry>
        </mxCell>
        <mxCell id="LqKblC7Wvc4Bk4WyccNA-124" value="LOOP" style="shape=umlFrame;whiteSpace=wrap;html=1;pointerEvents=0;fillColor=#dae8fc;strokeColor=#6c8ebf;" parent="1" vertex="1">
          <mxGeometry x="-250" y="640" width="1060" height="640" as="geometry" />
        </mxCell>
        <mxCell id="LqKblC7Wvc4Bk4WyccNA-132" value="disponibilità modificata" style="html=1;verticalAlign=bottom;endArrow=block;edgeStyle=elbowEdgeStyle;elbow=vertical;curved=0;rounded=0;labelBackgroundColor=none;dashed=1;" parent="1" target="ziAq5ncUOEXPv-bApJY8-1" edge="1">
          <mxGeometry relative="1" as="geometry">
            <mxPoint x="758.955" y="879.3636363636364" as="sourcePoint" />
            <mxPoint x="-160.0033333333335" y="879.6666666666667" as="targetPoint" />
          </mxGeometry>
        </mxCell>
        <mxCell id="LqKblC7Wvc4Bk4WyccNA-134" value="4.1a.1 membro del personale non disponibile" style="html=1;verticalAlign=bottom;endArrow=open;edgeStyle=elbowEdgeStyle;elbow=vertical;curved=0;rounded=0;labelBackgroundColor=none;dashed=1;strokeColor=#FF0000;fontColor=#FF0000;endFill=0;" parent="1" edge="1">
          <mxGeometry relative="1" as="geometry">
            <mxPoint x="757.6049999999999" y="924.2681818181818" as="sourcePoint" />
            <mxPoint x="-210.41333333333347" y="923.6666666666667" as="targetPoint" />
          </mxGeometry>
        </mxCell>
        <mxCell id="LqKblC7Wvc4Bk4WyccNA-135" value="" style="shape=umlDestroy;whiteSpace=wrap;html=1;strokeWidth=3;targetShapes=umlLifeline;" parent="1" vertex="1">
          <mxGeometry x="750" y="914.6800000000001" width="20" height="20.18" as="geometry" />
        </mxCell>
        <mxCell id="LqKblC7Wvc4Bk4WyccNA-144" value="" style="shape=umlDestroy;whiteSpace=wrap;html=1;strokeWidth=3;targetShapes=umlLifeline;" parent="1" vertex="1">
          <mxGeometry x="750" y="964" width="20" height="20" as="geometry" />
        </mxCell>
        <mxCell id="LqKblC7Wvc4Bk4WyccNA-128" value="prenotazionePersonale(disponibilità, servizio)" style="html=1;verticalAlign=bottom;endArrow=block;edgeStyle=elbowEdgeStyle;elbow=vertical;curved=0;rounded=0;labelBackgroundColor=none;" parent="1" edge="1">
          <mxGeometry x="-0.0028" relative="1" as="geometry">
            <mxPoint x="-210" y="823" as="sourcePoint" />
            <Array as="points" />
            <mxPoint x="760" y="824" as="targetPoint" />
            <mxPoint as="offset" />
          </mxGeometry>
        </mxCell>
        <mxCell id="LqKblC7Wvc4Bk4WyccNA-129" value="4a.1 liberaPersonale(disponibilità)" style="html=1;verticalAlign=bottom;endArrow=block;edgeStyle=elbowEdgeStyle;elbow=horizontal;curved=0;rounded=0;labelBackgroundColor=none;" parent="1" target="ziAq5ncUOEXPv-bApJY8-2" edge="1">
          <mxGeometry relative="1" as="geometry">
            <mxPoint x="-210" y="1039" as="sourcePoint" />
            <Array as="points">
              <mxPoint x="-119.5" y="1039" />
            </Array>
            <mxPoint x="75" y="1039" as="targetPoint" />
          </mxGeometry>
        </mxCell>
        <mxCell id="LqKblC7Wvc4Bk4WyccNA-141" value="" style="shape=umlDestroy;whiteSpace=wrap;html=1;strokeWidth=3;targetShapes=umlLifeline;" parent="1" vertex="1">
          <mxGeometry x="745" y="1145" width="30" height="20" as="geometry" />
        </mxCell>
        <mxCell id="LqKblC7Wvc4Bk4WyccNA-140" value="4a.1a.1&amp;nbsp; evento terminato oppure annullato" style="html=1;verticalAlign=bottom;endArrow=open;edgeStyle=elbowEdgeStyle;elbow=vertical;curved=0;rounded=0;labelBackgroundColor=none;dashed=1;strokeColor=#FF0000;fontColor=#FF0000;endFill=0;exitX=0.4;exitY=0.517;exitDx=0;exitDy=0;exitPerimeter=0;" parent="1" source="LqKblC7Wvc4Bk4WyccNA-141" edge="1">
          <mxGeometry relative="1" as="geometry">
            <mxPoint x="708.955" y="1154.83" as="sourcePoint" />
            <mxPoint x="-210.0033333333335" y="1154.33" as="targetPoint" />
            <Array as="points">
              <mxPoint x="760" y="1154" />
            </Array>
          </mxGeometry>
        </mxCell>
        <mxCell id="foloLPQ4tg3pwpEgOCVB-10" value="OPT" style="shape=umlFrame;whiteSpace=wrap;html=1;pointerEvents=0;fillColor=#F5F5F5;strokeColor=#666666;" parent="1" vertex="1">
          <mxGeometry x="-295" y="1588.08" width="1120" height="88.08" as="geometry" />
        </mxCell>
        <mxCell id="foloLPQ4tg3pwpEgOCVB-11" value="chiusuraEvento(noteFinali?, documentazione?)" style="html=1;verticalAlign=bottom;endArrow=block;edgeStyle=elbowEdgeStyle;elbow=vertical;curved=0;rounded=0;movable=1;resizable=1;rotatable=1;deletable=1;editable=1;locked=0;connectable=1;strokeColor=#666666;labelBackgroundColor=none;" parent="1" edge="1">
          <mxGeometry width="80" relative="1" as="geometry">
            <mxPoint x="-210" y="1627.08" as="sourcePoint" />
            <mxPoint x="760" y="1627.08" as="targetPoint" />
            <Array as="points">
              <mxPoint x="380" y="1627.08" />
              <mxPoint x="311.14" y="1673.1200000000001" />
            </Array>
          </mxGeometry>
        </mxCell>
        <mxCell id="foloLPQ4tg3pwpEgOCVB-9" value="evento modificato" style="html=1;verticalAlign=bottom;endArrow=none;edgeStyle=elbowEdgeStyle;elbow=vertical;curved=0;rounded=0;startArrow=open;startFill=0;endFill=0;dashed=1;labelBackgroundColor=none;strokeColor=#666666;" parent="1" edge="1">
          <mxGeometry width="80" relative="1" as="geometry">
            <mxPoint x="-210" y="1654.0751515151514" as="sourcePoint" />
            <mxPoint x="759.5" y="1654.140606060606" as="targetPoint" />
            <Array as="points">
              <mxPoint x="270" y="1654.140606060606" />
            </Array>
          </mxGeometry>
        </mxCell>
        <mxCell id="pRp4SMVmh0uea0Mb9OJ8-2" value="4a.1b.1&amp;nbsp; prenotazione non riferita ad un servizio dell&#39;evento" style="html=1;verticalAlign=bottom;endArrow=open;edgeStyle=elbowEdgeStyle;elbow=vertical;curved=0;rounded=0;labelBackgroundColor=none;dashed=1;strokeColor=#FF0000;fontColor=#FF0000;endFill=0;exitX=0.4;exitY=0.517;exitDx=0;exitDy=0;exitPerimeter=0;" edge="1" source="pRp4SMVmh0uea0Mb9OJ8-3" parent="1">
          <mxGeometry relative="1" as="geometry">
            <mxPoint x="708.955" y="1205.83" as="sourcePoint" />
            <mxPoint x="-210.0033333333335" y="1205.33" as="targetPoint" />
            <Array as="points">
              <mxPoint x="760" y="1205" />
            </Array>
          </mxGeometry>
        </mxCell>
        <mxCell id="pRp4SMVmh0uea0Mb9OJ8-3" value="" style="shape=umlDestroy;whiteSpace=wrap;html=1;strokeWidth=3;targetShapes=umlLifeline;" vertex="1" parent="1">
          <mxGeometry x="745" y="1196" width="30" height="20" as="geometry" />
        </mxCell>
      </root>
    </mxGraphModel>
  </diagram>
</mxfile>
